<svg id="visual" viewBox="0 0 900 900" width="900" height="900" xmlns="http://www.w3.org/2000/svg" xmlns:xlink="http://www.w3.org/1999/xlink" version="1.1"><g transform="translate(396.32074985984735 538.4316124949255)"><path d="M213.4 -268.9C291.3 -188.9 379.6 -135.7 406.5 -60.3C433.4 15.2 399 112.8 340.2 179.2C281.4 245.6 198.1 280.7 121.3 289.6C44.5 298.6 -25.8 281.4 -86.8 253C-147.8 224.5 -199.5 184.8 -239.1 130.9C-278.7 77 -306.3 9.1 -308.3 -67.4C-310.4 -143.9 -287 -229 -231.3 -312.9C-175.7 -396.9 -87.8 -479.7 -10.1 -467.7C67.7 -455.7 135.4 -348.9 213.4 -268.9" fill="#e3e3e3"></path></g></svg>